<svg width="49" height="32" viewBox="0 0 49 32" fill="none" xmlns="http://www.w3.org/2000/svg">
<path d="M48.25 0.625C47.4167 3.91667 46.5833 7.41667 45.75 11.125C44.9167 14.8333 44.1458 18.5 43.4375 22.125C42.7708 25.7083 42.2292 28.9792 41.8125 31.9375H27.5L26.625 30.5625C27.375 27.5208 28.3333 24.2708 29.5 20.8125C30.7083 17.3542 32 13.8958 33.375 10.4375C34.7917 6.9375 36.2083 3.66667 37.625 0.625H48.25ZM22.1875 0.625C21.3542 3.91667 20.5208 7.41667 19.6875 11.125C18.8542 14.8333 18.0833 18.5 17.375 22.125C16.7083 25.7083 16.1458 28.9792 15.6875 31.9375H1.4375L0.625 30.5625C1.375 27.5208 2.33333 24.2708 3.5 20.8125C4.66667 17.3542 5.9375 13.8958 7.3125 10.4375C8.72917 6.9375 10.1458 3.66667 11.5625 0.625H22.1875Z" fill="#003464"/>
</svg>