<svg width="82" height="120" viewBox="0 0 82 120" fill="none" xmlns="http://www.w3.org/2000/svg">
<mask id="mask0_1627_140" style="mask-type:alpha" maskUnits="userSpaceOnUse" x="0" y="0" width="82" height="120">
<rect width="82" height="120" fill="#D9D9D9"/>
</mask>
<g mask="url(#mask0_1627_140)">
<rect x="3" y="2" width="76" height="12" rx="6" stroke="#666666" stroke-width="2"/>
<rect width="76" height="12" rx="6" transform="matrix(1 0 0 -1 3 116)" stroke="#666666" stroke-width="2"/>
<path d="M51 59C51 57.4525 52.0025 56.0984 53.4283 55.4969C64.9283 50.6456 73 39.2654 73 26C73 21.7564 72.174 17.7057 70.674 14H11.326C9.82605 17.7057 9 21.7564 9 26C9 39.7454 17.6664 51.4666 29.8331 55.9976C31.1012 56.4698 32 57.6469 32 59V59C32 60.3531 31.1012 61.5302 29.8331 62.0024C17.6664 66.5334 9 78.2546 9 92C9 96.2436 9.82605 100.294 11.326 104H70.674C72.174 100.294 73 96.2436 73 92C73 78.7346 64.9283 67.3544 53.4283 62.5031C52.0025 61.9016 51 60.5475 51 59V59Z" stroke="#666666" stroke-width="2"/>
<path d="M10 33.498V32.498H8.73627L9.02678 33.7279L10 33.498ZM72.0001 33.498L72.9733 33.7279L73.2638 32.498H72.0001V33.498ZM9.02678 33.7279C12.4492 48.217 25.4641 59.0001 41 59.0001V57.0001C26.4125 57.0001 14.1873 46.8751 10.9732 33.2682L9.02678 33.7279ZM41 59.0001C56.5359 59.0001 69.5509 48.217 72.9733 33.7279L71.0269 33.2682C67.8128 46.8751 55.5876 57.0001 41 57.0001V59.0001ZM72.0001 32.498H10V34.498H72.0001V32.498Z" fill="#666666"/>
<path d="M9 98L29.3273 83.3898C36.3018 78.3768 45.6982 78.3768 52.6727 83.3898L73 98" stroke="#666666" stroke-width="2"/>
</g>
</svg>