<svg width="100%" height="100%" viewBox="0 0 48 48" fill="none" xmlns="http://www.w3.org/2000/svg">
<circle cx="24" cy="24" r="24" fill="#07B0F5"/>
<path d="M16.8267 22.3867C18.7467 26.16 21.84 29.24 25.6133 31.1733L28.5467 28.24C28.9067 27.88 29.44 27.76 29.9067 27.92C31.4 28.4133 33.0133 28.68 34.6667 28.68C35.4 28.68 36 29.28 36 30.0133V34.6667C36 35.4 35.4 36 34.6667 36C22.1467 36 12 25.8533 12 13.3333C12 12.6 12.6 12 13.3333 12H18C18.7333 12 19.3333 12.6 19.3333 13.3333C19.3333 15 19.6 16.6 20.0933 18.0933C20.24 18.56 20.1333 19.08 19.76 19.4533L16.8267 22.3867Z" fill="white"/>
</svg>
