<svg width="16" height="16" viewBox="0 0 16 16" fill="none" xmlns="http://www.w3.org/2000/svg">
<path d="M3.63231 15.2916V4.97528H0.201612V15.2927H3.63121L3.63231 15.2916ZM1.91696 3.5651C3.11231 3.5651 3.85816 2.77188 3.85816 1.78145C3.83612 0.770088 3.1123 0 1.9412 0C0.765682 0 0 0.77119 0 1.78145C0 2.77298 0.74475 3.5662 1.89603 3.5662L1.91696 3.5651ZM15.9989 15.2916V9.37658C15.9989 6.20698 14.3067 4.7318 12.0515 4.7318C10.2293 4.7318 9.41403 5.73435 8.96013 6.43614V4.97308H5.53054C5.57571 5.94257 5.53054 15.2916 5.53054 15.2916H8.96013V9.52971C8.96013 9.22124 8.98217 8.91276 9.07251 8.69462C9.31929 8.07767 9.88446 7.43978 10.8308 7.43978C12.0724 7.43978 12.5715 8.38504 12.5715 9.77209V15.2927H16L15.9989 15.2916Z" fill="#3A3A3A"/>
</svg>
