<svg width="160" height="132" viewBox="0 0 160 132" fill="none" xmlns="http://www.w3.org/2000/svg">
<path fill-rule="evenodd" clip-rule="evenodd" d="M0 60C0 26.8629 26.8629 0 60 0H72V20C52.1177 20 36 36.1178 36 56V60H56C64.8366 60 72 67.1634 72 76V116C72 124.837 64.8366 132 56 132H16C7.16344 132 0 124.837 0 116V60ZM124 60H144C152.837 60 160 67.1634 160 76V116C160 124.837 152.837 132 144 132H104C95.1634 132 88 124.837 88 116V60C88 26.8629 114.863 0 148 0H160V20C140.118 20 124 36.1178 124 56V60Z" fill="#E2E2E2"/>
</svg>
