<svg width="20" height="20" viewBox="0 0 20 20" fill="none" xmlns="http://www.w3.org/2000/svg">
<path d="M9.99967 19.1667C15.0623 19.1667 19.1663 15.0626 19.1663 10C19.1663 4.93739 15.0623 0.833332 9.99967 0.833332M9.99967 19.1667C4.93706 19.1667 0.833008 15.0626 0.833008 10C0.833008 4.93739 4.93706 0.833332 9.99967 0.833332M9.99967 19.1667C11.8406 19.1667 13.333 15.0626 13.333 10C13.333 4.93739 11.8406 0.833332 9.99967 0.833332M9.99967 19.1667C8.15872 19.1667 6.66634 15.0626 6.66634 10C6.66634 4.93739 8.15872 0.833332 9.99967 0.833332M1.66634 6.66666H18.333M1.66634 12.5H18.333" stroke="currentColor" stroke-width="1.67" stroke-linecap="round"/>
</svg>
