<svg width="430" height="592" viewBox="0 0 430 592" fill="none" xmlns="http://www.w3.org/2000/svg">
<g opacity="0.8">
<path d="M215.16 106.26L239.948 81.4726L240.066 81.2951V0.0117188H239.179V80.9402L214.391 105.787L214.273 105.905V156.84H215.16V106.26Z" fill="url(#paint0_radial_991_7)"/>
<path d="M296.207 126.196L248.525 173.819L249.176 174.469L296.562 127.084H371.338L416.003 82.4191L416.121 82.3008V40.7126L446.41 10.4236H543.193L550.943 2.67384V0.0117188H550.055V2.25973L542.838 9.53619H446.055L415.352 40.1802L415.234 40.3576V81.9459L370.983 126.196H296.207Z" fill="url(#paint1_radial_991_7)"/>
<path d="M369.859 148.912L412.926 105.845C413.222 106.082 413.636 106.2 414.05 106.2C415.234 106.2 416.121 105.254 416.121 104.13C416.121 102.947 415.234 102 414.05 102C412.867 102 411.98 102.947 411.98 104.13C411.98 104.544 412.098 104.899 412.276 105.254L369.504 148.025H320.994L278.045 190.974L278.696 191.625L321.349 148.912H369.859Z" fill="url(#paint2_radial_991_7)"/>
<path d="M241.84 140.808C241.545 140.572 241.131 140.453 240.716 140.453C239.533 140.453 238.646 141.4 238.646 142.583C238.646 143.707 239.533 144.654 240.716 144.654C241.9 144.654 242.787 143.707 242.787 142.583C242.787 142.169 242.669 141.755 242.491 141.459L283.133 100.758H322.237L346.373 76.6216L346.551 76.5033V0.0117188H345.663V76.1484L321.882 99.8708H282.778L241.84 140.808Z" fill="url(#paint3_radial_991_7)"/>
<path d="M287.511 75.7343L232.139 131.106C231.784 130.87 231.429 130.751 231.015 130.751C229.832 130.751 228.885 131.698 228.885 132.881C228.885 134.005 229.832 134.952 231.015 134.952C232.139 134.952 233.086 134.005 233.086 132.881C233.086 132.408 232.967 132.053 232.79 131.698L288.28 76.2075L288.399 76.0892V49.4088L265.623 26.6329V0.0117188H264.735V26.9879L287.511 49.7638V75.7343Z" fill="url(#paint4_radial_991_7)"/>
<path d="M304.016 114.305C303.779 113.359 302.951 112.649 301.946 112.649C300.762 112.649 299.875 113.596 299.875 114.779C299.875 115.903 300.762 116.849 301.946 116.849C302.951 116.849 303.779 116.139 304.016 115.193H349.45L389.204 75.4385L389.382 75.3201V27.402L412.749 4.03448L412.867 3.857V0.0117188H411.98V3.50205L388.612 26.8696L388.435 27.047V74.9652L349.095 114.305H304.016Z" fill="url(#paint5_radial_991_7)"/>
<path d="M557.509 122.174L504.681 175.002H331.11L301.65 204.522L302.241 205.114L331.465 175.889H505.036L557.864 123.061H658.374V122.174H557.509Z" fill="url(#paint6_radial_991_7)"/>
<path d="M573.719 216.056L573.541 215.938H460.904L405.591 271.31H337.145V272.197H405.946L461.318 216.825H573.186L592.058 235.696L592.176 235.815H658.374V234.927H592.531L573.719 216.056Z" fill="url(#paint7_radial_991_7)"/>
<path d="M437.832 263.681L415.056 286.457H337.145V287.344H415.411L438.187 264.568H532.545L564.49 232.623C564.845 232.859 565.2 232.978 565.614 232.978C566.797 232.978 567.744 232.031 567.744 230.848C567.744 229.724 566.797 228.777 565.614 228.777C564.49 228.777 563.544 229.724 563.544 230.848C563.544 231.262 563.662 231.676 563.899 231.972L532.19 263.681H437.832Z" fill="url(#paint8_radial_991_7)"/>
<path d="M611.935 148.024C612.172 148.971 613 149.681 614.006 149.681C615.189 149.681 616.076 148.734 616.076 147.61C616.076 146.427 615.189 145.48 614.006 145.48C613 145.48 612.172 146.19 611.935 147.137H564.313L515.211 196.179H429.491L376.781 248.889H337.145V249.776H377.136L429.846 197.066H515.566L564.668 148.024H611.935Z" fill="url(#paint9_radial_991_7)"/>
<path d="M545.323 91.4112L475.398 161.336H387.134C387.015 160.331 386.128 159.502 385.063 159.502C383.88 159.502 382.992 160.449 382.992 161.632C382.992 162.756 383.88 163.703 385.063 163.703C386.01 163.703 386.779 163.111 387.074 162.224H475.753L545.737 92.2986H594.069L624.891 61.4771L625.009 61.3588V0.0117188H624.122V60.9447L593.714 91.4112H545.323Z" fill="url(#paint10_radial_991_7)"/>
<path d="M475.398 27.342L448.658 54.0815L448.481 54.259V101.881L406.301 144.061C406.005 143.825 405.591 143.706 405.177 143.706C403.994 143.706 403.106 144.653 403.106 145.836C403.106 146.96 403.994 147.906 405.177 147.906C406.36 147.906 407.247 146.96 407.247 145.836C407.247 145.422 407.129 145.008 406.951 144.712L449.25 102.355L449.368 102.236V54.6139L475.753 28.2294H565.792C566.028 29.1759 566.856 29.8858 567.862 29.8858C569.045 29.8858 569.933 28.9392 569.933 27.8152C569.933 26.6321 569.045 25.6855 567.862 25.6855C566.856 25.6855 566.028 26.3954 565.792 27.342H475.398Z" fill="url(#paint11_radial_991_7)"/>
<path d="M292.362 92.5944C293.545 92.5944 294.492 91.6478 294.492 90.5238C294.492 90.1097 294.373 89.6956 294.137 89.3998L315.67 67.8662L315.789 67.7479V0.0117188H314.901V67.3338L293.486 88.7491C293.19 88.5124 292.776 88.3941 292.362 88.3941C291.238 88.3941 290.292 89.3407 290.292 90.5238C290.292 91.6478 291.238 92.5944 292.362 92.5944Z" fill="url(#paint12_radial_991_7)"/>
<path d="M338.446 102.71C337.263 102.71 336.316 103.657 336.316 104.781C336.316 105.964 337.263 106.911 338.446 106.911C339.57 106.911 340.516 105.964 340.516 104.781C340.516 104.367 340.398 104.012 340.161 103.657L367.256 76.6216L367.374 76.5033V0.0117188H366.487V76.1484L339.57 103.065C339.215 102.829 338.86 102.71 338.446 102.71Z" fill="url(#paint13_radial_991_7)"/>
<path d="M393.936 185.414C392.931 185.414 392.102 186.124 391.866 187.071H376.603L353.531 210.142H335.784L326.851 219.075L327.502 219.726L336.139 211.03H353.886L376.958 187.958H391.866C392.102 188.904 392.931 189.614 393.936 189.614C395.12 189.614 396.007 188.668 396.007 187.544C396.007 186.361 395.12 185.414 393.936 185.414Z" fill="url(#paint14_radial_991_7)"/>
<path d="M486.874 183.047C485.868 183.047 485.04 183.757 484.804 184.703H419.197L374.651 229.309H360.098C359.861 228.362 359.033 227.652 358.027 227.652C356.903 227.652 355.957 228.54 355.957 229.723C355.957 230.906 356.903 231.793 358.027 231.793C359.033 231.793 359.861 231.143 360.098 230.196H375.006L419.552 185.591H484.804C485.04 186.537 485.868 187.247 486.874 187.247C487.998 187.247 488.945 186.301 488.945 185.177C488.945 183.993 487.998 183.047 486.874 183.047Z" fill="url(#paint15_radial_991_7)"/>
<path d="M-17.0364 10.4236L13.2527 40.7126V82.3008L57.9172 126.965L58.0355 127.084H132.812L180.197 174.469L180.848 173.819L133.285 126.315L133.167 126.196H58.3905L14.1401 81.9459V40.3576L-16.5039 9.65451L-16.6814 9.53619H-113.464L-120.682 2.25973V0.0117188H-121.569V2.67384L-113.819 10.4236H-17.0364Z" fill="url(#paint16_radial_991_7)"/>
<path d="M108.498 148.143L108.379 148.025H59.8697L17.0982 105.254C17.2757 104.899 17.394 104.544 17.394 104.13C17.394 102.947 16.5066 102 15.3235 102C14.1403 102 13.2529 102.947 13.2529 104.13C13.2529 105.254 14.1403 106.2 15.3235 106.2C15.7376 106.2 16.1517 106.082 16.4475 105.845L59.3964 148.794L59.5147 148.912H108.025L150.678 191.625L151.328 190.974L108.498 148.143Z" fill="url(#paint17_radial_991_7)"/>
<path d="M107.137 100.758H146.241L186.883 141.459C186.705 141.755 186.587 142.169 186.587 142.583C186.587 143.707 187.474 144.654 188.658 144.654C189.841 144.654 190.728 143.707 190.728 142.583C190.728 141.4 189.841 140.453 188.658 140.453C188.243 140.453 187.829 140.572 187.534 140.808L146.714 99.9892L146.596 99.8708H107.492L83.7107 76.1484V0.0117188H82.8233V76.5033L107.019 100.64L107.137 100.758Z" fill="url(#paint18_radial_991_7)"/>
<path d="M40.0519 75.3201L79.8063 115.074L79.9246 115.193H125.358C125.595 116.139 126.423 116.849 127.429 116.849C128.612 116.849 129.499 115.903 129.499 114.779C129.499 113.596 128.612 112.649 127.429 112.649C126.423 112.649 125.595 113.359 125.358 114.305H80.2796L40.8801 74.9652V27.047L17.3943 3.50205V0.0117188H16.5069V3.857L39.9928 27.402L40.0519 75.3201Z" fill="url(#paint19_radial_991_7)"/>
<path d="M-75.78 175.771L-75.6617 175.889H97.9088L127.133 205.114L127.725 204.522L98.3821 175.12L98.2638 175.002H-75.3067L-128.017 122.292L-128.135 122.174H-229V123.061H-128.49L-75.78 175.771Z" fill="url(#paint20_radial_991_7)"/>
<path d="M-143.812 216.825H-31.9437L23.3102 272.02L23.4285 272.197H92.2296V271.31H23.7834L-31.4113 216.056L-31.5296 215.938H-144.167L-163.157 234.927H-229V235.815H-162.802L-143.812 216.825Z" fill="url(#paint21_radial_991_7)"/>
<path d="M-86.1919 197.066H-0.471542L52.061 249.658L52.2385 249.776H92.2295V248.889H52.5935L0.0017395 196.357L-0.116577 196.179H-85.837L-134.761 147.255L-134.938 147.137H-182.561C-182.797 146.19 -183.626 145.48 -184.631 145.48C-185.814 145.48 -186.702 146.427 -186.702 147.61C-186.702 148.734 -185.814 149.681 -184.631 149.681C-183.626 149.681 -182.797 148.971 -182.561 148.024H-135.293L-86.3694 196.948L-86.1919 197.066Z" fill="url(#paint22_radial_991_7)"/>
<path d="M-164.695 92.2986H-116.362L-46.4965 162.105L-46.3782 162.224H42.3001C42.5959 163.111 43.365 163.703 44.3115 163.703C45.4947 163.703 46.382 162.756 46.382 161.632C46.382 160.449 45.4947 159.502 44.3115 159.502C43.2466 159.502 42.3593 160.331 42.241 161.336H-46.0232L-115.83 91.5295L-115.948 91.4112H-164.34L-194.747 60.9447V0.0117188H-195.635V61.3588L-164.813 92.1211L-164.695 92.2986Z" fill="url(#paint23_radial_991_7)"/>
<path d="M93.5902 210.142H75.8427L52.8893 187.189L52.771 187.071H37.5081C37.2715 186.124 36.4433 185.414 35.4376 185.414C34.2544 185.414 33.3671 186.361 33.3671 187.544C33.3671 188.668 34.2544 189.614 35.4376 189.614C36.4433 189.614 37.2715 188.904 37.5081 187.958H52.416L75.3695 210.911L75.4878 211.03H93.2353L101.872 219.726L102.523 219.075L93.5902 210.142Z" fill="url(#paint24_radial_991_7)"/>
<path d="M196.289 132.881C196.289 134.005 197.236 134.952 198.36 134.952C199.543 134.952 200.489 134.005 200.489 132.881C200.489 131.698 199.543 130.751 198.36 130.751C197.945 130.751 197.59 130.87 197.236 131.106L141.863 75.7343V49.7638L164.521 27.1062L164.639 26.9879V0.0117188H163.752V26.6329L141.094 49.2905L140.976 49.4088V76.0892L196.585 131.698C196.407 132.053 196.289 132.408 196.289 132.881Z" fill="url(#paint25_radial_991_7)"/>
<path d="M134.882 90.5238C134.882 91.6478 135.828 92.5944 137.012 92.5944C138.136 92.5944 139.082 91.6478 139.082 90.5238C139.082 89.3407 138.136 88.3941 137.012 88.3941C136.597 88.3941 136.183 88.5124 135.888 88.7491L114.472 67.3338V0.0117188H113.585V67.7479L135.237 89.3998C135 89.6956 134.882 90.1097 134.882 90.5238Z" fill="url(#paint26_radial_991_7)"/>
<path d="M88.8577 104.781C88.8577 105.964 89.8043 106.911 90.9283 106.911C92.1114 106.911 93.058 105.964 93.058 104.781C93.058 103.657 92.1114 102.71 90.9283 102.71C90.5142 102.71 90.1592 102.829 89.8043 103.065L62.8873 76.1484V0.0117188H61.9999V76.5033L89.2127 103.657C88.9761 104.012 88.8577 104.367 88.8577 104.781Z" fill="url(#paint27_radial_991_7)"/>
<path d="M-138.488 29.8858C-137.482 29.8858 -136.654 29.1759 -136.418 28.2294H-46.3787L-19.9941 54.6139V102.236L22.4224 144.712C22.2449 145.008 22.1266 145.422 22.1266 145.836C22.1266 146.96 23.014 147.906 24.1972 147.906C25.3803 147.906 26.2677 146.96 26.2677 145.836C26.2677 144.653 25.3803 143.706 24.1972 143.706C23.7831 143.706 23.3689 143.825 23.0732 144.061L-19.1067 101.881V54.259L-45.8463 27.4603L-46.0238 27.342H-136.418C-136.654 26.3954 -137.482 25.6855 -138.488 25.6855C-139.671 25.6855 -140.559 26.6321 -140.559 27.8152C-140.559 28.9392 -139.671 29.8858 -138.488 29.8858Z" fill="url(#paint28_radial_991_7)"/>
<path d="M-55.4295 185.591H9.82214L54.25 230.019L54.3683 230.196H69.2762C69.5128 231.143 70.3411 231.793 71.3468 231.793C72.4708 231.793 73.4173 230.906 73.4173 229.723C73.4173 228.54 72.4708 227.652 71.3468 227.652C70.3411 227.652 69.5128 228.362 69.2762 229.309H54.7233L10.2954 184.822L10.1771 184.703H-55.4295C-55.6661 183.757 -56.4943 183.047 -57.5 183.047C-58.624 183.047 -59.5706 183.993 -59.5706 185.177C-59.5706 186.301 -58.624 187.247 -57.5 187.247C-56.4943 187.247 -55.6661 186.537 -55.4295 185.591Z" fill="url(#paint29_radial_991_7)"/>
<path d="M-136.24 228.777C-137.423 228.777 -138.37 229.724 -138.37 230.848C-138.37 232.031 -137.423 232.978 -136.299 232.978C-135.826 232.978 -135.471 232.859 -135.116 232.623L-103.289 264.45L-103.17 264.568H-8.81291L13.8447 287.226L13.963 287.344H92.2295V286.457H14.318L-8.33966 263.799L-8.45798 263.681H-102.815L-134.524 231.972C-134.288 231.676 -134.169 231.262 -134.169 230.848C-134.169 229.724 -135.116 228.777 -136.299 228.777H-136.24Z" fill="url(#paint30_radial_991_7)"/>
<path d="M446.41 581.183L416.121 550.894V509.305L371.457 464.641L371.339 464.522H296.562L249.177 417.137L248.526 417.787L296.089 465.292L296.207 465.41H370.984L415.234 509.66V551.248L445.878 581.952L446.055 582.07H542.838L550.056 589.346V591.594H550.943V588.932L543.193 581.183H446.41Z" fill="url(#paint31_radial_991_7)"/>
<path d="M322.237 490.849H283.133L242.491 450.148C242.669 449.852 242.787 449.438 242.787 449.024C242.787 447.9 241.9 446.953 240.716 446.953C239.533 446.953 238.646 447.9 238.646 449.024C238.646 450.207 239.533 451.153 240.716 451.153C241.131 451.153 241.545 451.035 241.84 450.798L282.66 491.618L282.778 491.736H321.882L345.663 515.458V591.595H346.551V515.103L322.355 490.967L322.237 490.849Z" fill="url(#paint32_radial_991_7)"/>
<path d="M389.382 516.287L349.568 476.533L349.45 476.414H304.016C303.779 475.468 302.951 474.758 301.946 474.758C300.762 474.758 299.875 475.704 299.875 476.828C299.875 478.012 300.762 478.958 301.946 478.958C302.951 478.958 303.779 478.248 304.016 477.302H349.095L388.494 516.642V564.56L411.98 588.105V591.595H412.867V587.75L389.382 564.205V516.287Z" fill="url(#paint33_radial_991_7)"/>
<path d="M505.154 415.835L505.036 415.716H331.465L302.241 386.492L301.65 387.084L330.992 416.485L331.11 416.604H504.681L557.391 469.314L557.509 469.432H658.374V468.545H557.864L505.154 415.835Z" fill="url(#paint34_radial_991_7)"/>
<path d="M573.186 374.778H461.318L406.064 319.584L405.946 319.406H337.145V320.294H405.591L460.786 375.547L460.904 375.666H573.541L592.531 356.676H658.374V355.789H592.176L573.186 374.778Z" fill="url(#paint35_radial_991_7)"/>
<path d="M515.566 394.538H429.846L377.313 341.946L377.136 341.828H337.145V342.715H376.781L429.373 395.248L429.491 395.426H515.211L564.135 444.349L564.313 444.468H611.935C612.172 445.414 613 446.124 614.006 446.124C615.189 446.124 616.076 445.178 616.076 443.994C616.076 442.87 615.189 441.924 614.006 441.924C613 441.924 612.172 442.634 611.935 443.58H564.668L515.744 394.656L515.566 394.538Z" fill="url(#paint36_radial_991_7)"/>
<path d="M594.069 499.306H545.737L475.871 429.5L475.753 429.381H387.074C386.779 428.494 386.01 427.902 385.063 427.902C383.88 427.902 382.992 428.849 382.992 429.973C382.992 431.156 383.88 432.103 385.063 432.103C386.128 432.103 387.015 431.274 387.134 430.269H475.398L545.204 500.075L545.323 500.194H593.714L624.122 530.66V591.593H625.009V530.246L594.188 499.484L594.069 499.306Z" fill="url(#paint37_radial_991_7)"/>
<path d="M335.784 381.466H353.531L376.485 404.42L376.603 404.538H391.866C392.102 405.485 392.931 406.195 393.936 406.195C395.12 406.195 396.007 405.248 396.007 404.065C396.007 402.941 395.12 401.994 393.936 401.994C392.931 401.994 392.102 402.704 391.866 403.651H376.958L354.005 380.697L353.886 380.579H336.139L327.502 371.883L326.851 372.534L335.784 381.466Z" fill="url(#paint38_radial_991_7)"/>
<path d="M233.086 458.723C233.086 457.599 232.139 456.652 231.015 456.652C229.832 456.652 228.885 457.599 228.885 458.723C228.885 459.906 229.832 460.853 231.015 460.853C231.429 460.853 231.784 460.734 232.139 460.498L287.511 515.87V541.84L264.854 564.498L264.735 564.616V591.592H265.623V564.971L288.28 542.313L288.399 542.195V515.515L232.79 459.906C232.967 459.551 233.086 459.196 233.086 458.723Z" fill="url(#paint39_radial_991_7)"/>
<path d="M294.492 501.082C294.492 499.958 293.545 499.012 292.362 499.012C291.238 499.012 290.292 499.958 290.292 501.082C290.292 502.265 291.238 503.212 292.362 503.212C292.776 503.212 293.19 503.094 293.486 502.857L314.901 524.272V591.594H315.789V523.858L294.137 502.206C294.373 501.91 294.492 501.496 294.492 501.082Z" fill="url(#paint40_radial_991_7)"/>
<path d="M340.516 486.825C340.516 485.642 339.57 484.695 338.446 484.695C337.263 484.695 336.316 485.642 336.316 486.825C336.316 487.949 337.263 488.896 338.446 488.896C338.86 488.896 339.215 488.777 339.57 488.541L366.487 515.458V591.594H367.374V515.103L340.161 487.949C340.398 487.594 340.516 487.239 340.516 486.825Z" fill="url(#paint41_radial_991_7)"/>
<path d="M414.05 489.605C415.234 489.605 416.121 488.659 416.121 487.476C416.121 486.352 415.234 485.405 414.05 485.405C413.636 485.405 413.222 485.523 412.926 485.76L369.977 442.811L369.859 442.693H321.349L278.696 399.98L278.045 400.631L320.876 443.462L320.994 443.58H369.504L412.276 486.351C412.098 486.706 411.98 487.061 411.98 487.476C411.98 488.659 412.867 489.605 414.05 489.605Z" fill="url(#paint42_radial_991_7)"/>
<path d="M567.862 561.72C566.856 561.72 566.028 562.43 565.792 563.376H475.753L449.368 536.992V489.369L406.951 446.894C407.129 446.598 407.247 446.184 407.247 445.77C407.247 444.646 406.36 443.699 405.177 443.699C403.994 443.699 403.106 444.646 403.106 445.77C403.106 446.953 403.994 447.899 405.177 447.899C405.591 447.899 406.005 447.781 406.301 447.545L448.481 489.724V537.347L475.22 564.145L475.398 564.264H565.792C566.028 565.21 566.856 565.92 567.862 565.92C569.045 565.92 569.933 564.974 569.933 563.79C569.933 562.666 569.045 561.72 567.862 561.72Z" fill="url(#paint43_radial_991_7)"/>
<path d="M484.804 406.015H419.552L375.125 361.587L375.006 361.41H360.098C359.862 360.463 359.034 359.812 358.028 359.812C356.904 359.812 355.957 360.7 355.957 361.883C355.957 363.066 356.904 363.954 358.028 363.954C359.034 363.954 359.862 363.244 360.098 362.297H374.651L419.079 406.784L419.197 406.902H484.804C485.041 407.849 485.869 408.559 486.875 408.559C487.999 408.559 488.945 407.612 488.945 406.429C488.945 405.305 487.999 404.359 486.875 404.359C485.869 404.359 485.041 405.069 484.804 406.015Z" fill="url(#paint44_radial_991_7)"/>
<path d="M565.673 362.828C566.797 362.828 567.744 361.882 567.744 360.758C567.744 359.575 566.797 358.628 565.673 358.628C565.2 358.628 564.845 358.746 564.49 358.983L532.663 327.156L532.545 327.038H438.187L415.53 304.38L415.411 304.262H337.145V305.149H415.056L437.714 327.807L437.832 327.925H532.19L563.899 359.634C563.662 359.93 563.544 360.344 563.544 360.758C563.544 361.882 564.49 362.828 565.673 362.828Z" fill="url(#paint45_radial_991_7)"/>
<path d="M133.167 465.41L180.848 417.787L180.197 417.137L132.812 464.522H58.0355L13.371 509.187L13.2527 509.305V550.894L-17.0364 581.183H-113.819L-121.569 588.932V591.594H-120.682V589.346L-113.464 582.07H-16.6814L14.0217 551.426L14.1401 551.248V509.66L58.3905 465.41H133.167Z" fill="url(#paint46_radial_991_7)"/>
<path d="M108.379 443.58L151.328 400.631L150.678 399.98L108.025 442.693H59.5147L16.4475 485.76C16.1517 485.523 15.7376 485.405 15.3235 485.405C14.1403 485.405 13.2529 486.352 13.2529 487.476C13.2529 488.659 14.1403 489.605 15.3235 489.605C16.5066 489.605 17.394 488.659 17.394 487.476C17.394 487.061 17.2757 486.706 17.0982 486.351L59.8697 443.58H108.379Z" fill="url(#paint47_radial_991_7)"/>
<path d="M187.534 450.798C187.829 451.035 188.243 451.153 188.658 451.153C189.841 451.153 190.728 450.207 190.728 449.024C190.728 447.9 189.841 446.953 188.658 446.953C187.474 446.953 186.587 447.9 186.587 449.024C186.587 449.438 186.705 449.852 186.883 450.148L146.241 490.849H107.137L83.0008 514.985L82.8233 515.103V591.595H83.7107V515.458L107.492 491.736H146.596L187.534 450.798Z" fill="url(#paint48_radial_991_7)"/>
<path d="M141.863 515.87L197.236 460.498C197.59 460.734 197.945 460.853 198.36 460.853C199.543 460.853 200.489 459.906 200.489 458.723C200.489 457.599 199.543 456.652 198.36 456.652C197.236 456.652 196.289 457.599 196.289 458.723C196.289 459.196 196.407 459.551 196.585 459.906L141.094 515.396L140.976 515.515V542.195L163.752 564.971V591.592H164.639V564.616L141.863 541.84V515.87Z" fill="url(#paint49_radial_991_7)"/>
<path d="M125.358 477.302C125.595 478.248 126.423 478.958 127.429 478.958C128.612 478.958 129.499 478.012 129.499 476.828C129.499 475.704 128.612 474.758 127.429 474.758C126.423 474.758 125.595 475.468 125.358 476.414H79.9246L40.1702 516.169L39.9928 516.287V564.205L16.6252 587.573L16.5069 587.75V591.595H17.3943V588.105L40.7618 564.737L40.9393 564.56V516.642L80.2796 477.302H125.358Z" fill="url(#paint50_radial_991_7)"/>
<path d="M-75.3067 416.604H98.2638L127.725 387.084L127.133 386.492L97.9088 415.716H-75.6617L-128.49 468.545H-229V469.432H-128.135L-75.3067 416.604Z" fill="url(#paint51_radial_991_7)"/>
<path d="M-144.344 375.547L-144.167 375.666H-31.5296L23.7834 320.294H92.2296V319.406H23.4285L-31.9437 374.778H-143.812L-162.684 355.907L-162.802 355.789H-229V356.676H-163.157L-144.344 375.547Z" fill="url(#paint52_radial_991_7)"/>
<path d="M-8.45798 327.925L14.318 305.149H92.2295V304.262H13.963L-8.81291 327.038H-103.17L-135.116 358.983C-135.471 358.746 -135.826 358.628 -136.24 358.628C-137.423 358.628 -138.37 359.575 -138.37 360.758C-138.37 361.882 -137.423 362.828 -136.24 362.828C-135.116 362.828 -134.169 361.882 -134.169 360.758C-134.169 360.344 -134.288 359.93 -134.524 359.634L-102.815 327.925H-8.45798Z" fill="url(#paint53_radial_991_7)"/>
<path d="M-182.561 443.58C-182.797 442.634 -183.626 441.924 -184.631 441.924C-185.814 441.924 -186.702 442.87 -186.702 443.994C-186.702 445.178 -185.814 446.124 -184.631 446.124C-183.626 446.124 -182.797 445.414 -182.561 444.468H-134.938L-85.837 395.426H-0.116577L52.5935 342.715H92.2295V341.828H52.2385L-0.471542 394.538H-86.1919L-135.293 443.58H-182.561Z" fill="url(#paint54_radial_991_7)"/>
<path d="M-115.948 500.194L-46.0232 430.269H42.241C42.3593 431.274 43.2466 432.103 44.3115 432.103C45.4947 432.103 46.382 431.156 46.382 429.973C46.382 428.849 45.4947 427.902 44.3115 427.902C43.365 427.902 42.5959 428.494 42.3001 429.381H-46.3782L-116.362 499.306H-164.695L-195.516 530.128L-195.635 530.246V591.593H-194.747V530.66L-164.34 500.194H-115.948Z" fill="url(#paint55_radial_991_7)"/>
<path d="M-46.0238 564.264L-19.2842 537.524L-19.1067 537.347V489.724L23.0732 447.545C23.3689 447.781 23.7831 447.899 24.1972 447.899C25.3803 447.899 26.2677 446.953 26.2677 445.77C26.2677 444.646 25.3803 443.699 24.1972 443.699C23.014 443.699 22.1266 444.646 22.1266 445.77C22.1266 446.184 22.2449 446.598 22.4224 446.894L-19.8758 489.251L-19.9941 489.369V536.992L-46.3787 563.376H-136.418C-136.654 562.43 -137.482 561.72 -138.488 561.72C-139.671 561.72 -140.559 562.666 -140.559 563.79C-140.559 564.974 -139.671 565.92 -138.488 565.92C-137.482 565.92 -136.654 565.21 -136.418 564.264H-46.0238Z" fill="url(#paint56_radial_991_7)"/>
<path d="M137.012 499.012C135.828 499.012 134.882 499.958 134.882 501.082C134.882 501.496 135 501.91 135.237 502.206L113.703 523.74L113.585 523.858V591.594H114.472V524.272L135.888 502.857C136.183 503.094 136.597 503.212 137.012 503.212C138.136 503.212 139.082 502.265 139.082 501.082C139.082 499.958 138.136 499.012 137.012 499.012Z" fill="url(#paint57_radial_991_7)"/>
<path d="M90.9283 488.896C92.1114 488.896 93.058 487.949 93.058 486.825C93.058 485.642 92.1114 484.695 90.9283 484.695C89.8043 484.695 88.8577 485.642 88.8577 486.825C88.8577 487.239 88.9761 487.594 89.2127 487.949L62.1182 514.984L61.9999 515.103V591.594H62.8873V515.458L89.8043 488.541C90.1592 488.777 90.5142 488.896 90.9283 488.896Z" fill="url(#paint58_radial_991_7)"/>
<path d="M35.4376 406.195C36.4433 406.195 37.2715 405.485 37.5081 404.538H52.771L75.8427 381.466H93.5902L102.523 372.534L101.872 371.883L93.2353 380.579H75.4878L52.416 403.651H37.5081C37.2715 402.704 36.4433 401.994 35.4376 401.994C34.2544 401.994 33.3671 402.941 33.3671 404.065C33.3671 405.248 34.2544 406.195 35.4376 406.195Z" fill="url(#paint59_radial_991_7)"/>
<path d="M-57.5 408.559C-56.4943 408.559 -55.6661 407.849 -55.4295 406.902H10.1771L54.7233 362.297H69.2762C69.5128 363.244 70.3411 363.954 71.3468 363.954C72.4708 363.954 73.4173 363.066 73.4173 361.883C73.4173 360.7 72.4708 359.812 71.3468 359.812C70.3411 359.812 69.5128 360.463 69.2762 361.41H54.3683L9.82214 406.015H-55.4295C-55.6661 405.069 -56.4943 404.359 -57.5 404.359C-58.624 404.359 -59.5706 405.305 -59.5706 406.429C-59.5706 407.612 -58.624 408.559 -57.5 408.559Z" fill="url(#paint60_radial_991_7)"/>
<path d="M203.151 112.708C202.205 112.945 201.495 113.773 201.495 114.779C201.495 115.903 202.441 116.849 203.565 116.849C204.748 116.849 205.695 115.903 205.695 114.779C205.695 113.773 204.985 112.945 204.039 112.708V92.6535L180.02 68.6944V53.5499L196.585 36.9856L196.703 36.8673V0.0117188H195.816V36.5123L179.31 53.0175L179.133 53.1358V69.0494L203.151 93.0085V112.708Z" fill="url(#paint61_radial_991_7)"/>
<path d="M183.984 510.252L214.983 479.253L215.101 479.134V434.766H214.213V478.779L183.215 509.778L183.096 509.897V544.8L201.968 563.671V591.594H202.855V563.316L183.984 544.445V510.252Z" fill="url(#paint62_radial_991_7)"/>
<path d="M222.378 434.766H221.49V471.976L246.218 496.704V520.013L214.391 551.84L214.214 551.958V591.594H215.16L215.101 552.313L246.988 520.486L247.106 520.368V496.349L222.378 471.621V434.766Z" fill="url(#paint63_radial_991_7)"/>
<path d="M594.72 295.388L338.446 295.329V296.216H595.075L618.147 273.204H658.374V272.316H617.792L594.72 295.388Z" fill="url(#paint64_radial_991_7)"/>
<path d="M-165.346 296.571H90.9281V295.684H-165.701L-188.772 318.755H-229V319.643H-188.417L-165.346 296.571Z" fill="url(#paint65_radial_991_7)"/>
</g>
<defs>
<radialGradient id="paint0_radial_991_7" cx="0" cy="0" r="1" gradientUnits="userSpaceOnUse" gradientTransform="translate(247.618 311.561) scale(407.099 407.098)">
<stop stop-color="#00F1F2"/>
<stop offset="1" stop-color="#010A33" stop-opacity="0"/>
</radialGradient>
<radialGradient id="paint1_radial_991_7" cx="0" cy="0" r="1" gradientUnits="userSpaceOnUse" gradientTransform="translate(247.617 311.561) scale(407.103 407.102)">
<stop stop-color="#00F1F2"/>
<stop offset="1" stop-color="#010A33" stop-opacity="0"/>
</radialGradient>
<radialGradient id="paint2_radial_991_7" cx="0" cy="0" r="1" gradientUnits="userSpaceOnUse" gradientTransform="translate(247.617 311.562) scale(407.103 407.102)">
<stop stop-color="#00F1F2"/>
<stop offset="1" stop-color="#010A33" stop-opacity="0"/>
</radialGradient>
<radialGradient id="paint3_radial_991_7" cx="0" cy="0" r="1" gradientUnits="userSpaceOnUse" gradientTransform="translate(247.617 311.562) scale(407.101 407.101)">
<stop stop-color="#00F1F2"/>
<stop offset="1" stop-color="#010A33" stop-opacity="0"/>
</radialGradient>
<radialGradient id="paint4_radial_991_7" cx="0" cy="0" r="1" gradientUnits="userSpaceOnUse" gradientTransform="translate(247.618 311.562) scale(407.101 407.101)">
<stop stop-color="#00F1F2"/>
<stop offset="1" stop-color="#010A33" stop-opacity="0"/>
</radialGradient>
<radialGradient id="paint5_radial_991_7" cx="0" cy="0" r="1" gradientUnits="userSpaceOnUse" gradientTransform="translate(247.618 311.561) scale(407.102 407.101)">
<stop stop-color="#00F1F2"/>
<stop offset="1" stop-color="#010A33" stop-opacity="0"/>
</radialGradient>
<radialGradient id="paint6_radial_991_7" cx="0" cy="0" r="1" gradientUnits="userSpaceOnUse" gradientTransform="translate(247.618 311.562) scale(407.103 407.102)">
<stop stop-color="#00F1F2"/>
<stop offset="1" stop-color="#010A33" stop-opacity="0"/>
</radialGradient>
<radialGradient id="paint7_radial_991_7" cx="0" cy="0" r="1" gradientUnits="userSpaceOnUse" gradientTransform="translate(247.618 311.56) scale(407.102 407.102)">
<stop stop-color="#00F1F2"/>
<stop offset="1" stop-color="#010A33" stop-opacity="0"/>
</radialGradient>
<radialGradient id="paint8_radial_991_7" cx="0" cy="0" r="1" gradientUnits="userSpaceOnUse" gradientTransform="translate(247.619 311.563) scale(407.101 407.1)">
<stop stop-color="#00F1F2"/>
<stop offset="1" stop-color="#010A33" stop-opacity="0"/>
</radialGradient>
<radialGradient id="paint9_radial_991_7" cx="0" cy="0" r="1" gradientUnits="userSpaceOnUse" gradientTransform="translate(247.619 311.56) scale(407.102 407.102)">
<stop stop-color="#00F1F2"/>
<stop offset="1" stop-color="#010A33" stop-opacity="0"/>
</radialGradient>
<radialGradient id="paint10_radial_991_7" cx="0" cy="0" r="1" gradientUnits="userSpaceOnUse" gradientTransform="translate(247.618 311.561) scale(407.101 407.1)">
<stop stop-color="#00F1F2"/>
<stop offset="1" stop-color="#010A33" stop-opacity="0"/>
</radialGradient>
<radialGradient id="paint11_radial_991_7" cx="0" cy="0" r="1" gradientUnits="userSpaceOnUse" gradientTransform="translate(247.619 311.562) scale(407.101 407.1)">
<stop stop-color="#00F1F2"/>
<stop offset="1" stop-color="#010A33" stop-opacity="0"/>
</radialGradient>
<radialGradient id="paint12_radial_991_7" cx="0" cy="0" r="1" gradientUnits="userSpaceOnUse" gradientTransform="translate(247.618 311.562) scale(407.103 407.102)">
<stop stop-color="#00F1F2"/>
<stop offset="1" stop-color="#010A33" stop-opacity="0"/>
</radialGradient>
<radialGradient id="paint13_radial_991_7" cx="0" cy="0" r="1" gradientUnits="userSpaceOnUse" gradientTransform="translate(247.617 311.561) scale(407.101 407.101)">
<stop stop-color="#00F1F2"/>
<stop offset="1" stop-color="#010A33" stop-opacity="0"/>
</radialGradient>
<radialGradient id="paint14_radial_991_7" cx="0" cy="0" r="1" gradientUnits="userSpaceOnUse" gradientTransform="translate(247.618 311.562) scale(407.1 407.1)">
<stop stop-color="#00F1F2"/>
<stop offset="1" stop-color="#010A33" stop-opacity="0"/>
</radialGradient>
<radialGradient id="paint15_radial_991_7" cx="0" cy="0" r="1" gradientUnits="userSpaceOnUse" gradientTransform="translate(247.618 311.561) scale(407.1 407.1)">
<stop stop-color="#00F1F2"/>
<stop offset="1" stop-color="#010A33" stop-opacity="0"/>
</radialGradient>
<radialGradient id="paint16_radial_991_7" cx="0" cy="0" r="1" gradientUnits="userSpaceOnUse" gradientTransform="translate(247.618 311.561) scale(407.102 407.102)">
<stop stop-color="#00F1F2"/>
<stop offset="1" stop-color="#010A33" stop-opacity="0"/>
</radialGradient>
<radialGradient id="paint17_radial_991_7" cx="0" cy="0" r="1" gradientUnits="userSpaceOnUse" gradientTransform="translate(247.619 311.562) scale(407.103 407.103)">
<stop stop-color="#00F1F2"/>
<stop offset="1" stop-color="#010A33" stop-opacity="0"/>
</radialGradient>
<radialGradient id="paint18_radial_991_7" cx="0" cy="0" r="1" gradientUnits="userSpaceOnUse" gradientTransform="translate(247.619 311.562) scale(407.101 407.101)">
<stop stop-color="#00F1F2"/>
<stop offset="1" stop-color="#010A33" stop-opacity="0"/>
</radialGradient>
<radialGradient id="paint19_radial_991_7" cx="0" cy="0" r="1" gradientUnits="userSpaceOnUse" gradientTransform="translate(247.618 311.561) scale(407.101 407.1)">
<stop stop-color="#00F1F2"/>
<stop offset="1" stop-color="#010A33" stop-opacity="0"/>
</radialGradient>
<radialGradient id="paint20_radial_991_7" cx="0" cy="0" r="1" gradientUnits="userSpaceOnUse" gradientTransform="translate(247.618 311.562) scale(407.101 407.101)">
<stop stop-color="#00F1F2"/>
<stop offset="1" stop-color="#010A33" stop-opacity="0"/>
</radialGradient>
<radialGradient id="paint21_radial_991_7" cx="0" cy="0" r="1" gradientUnits="userSpaceOnUse" gradientTransform="translate(247.619 311.56) scale(407.103 407.103)">
<stop stop-color="#00F1F2"/>
<stop offset="1" stop-color="#010A33" stop-opacity="0"/>
</radialGradient>
<radialGradient id="paint22_radial_991_7" cx="0" cy="0" r="1" gradientUnits="userSpaceOnUse" gradientTransform="translate(247.618 311.56) scale(407.101 407.101)">
<stop stop-color="#00F1F2"/>
<stop offset="1" stop-color="#010A33" stop-opacity="0"/>
</radialGradient>
<radialGradient id="paint23_radial_991_7" cx="0" cy="0" r="1" gradientUnits="userSpaceOnUse" gradientTransform="translate(247.618 311.561) scale(407.099 407.099)">
<stop stop-color="#00F1F2"/>
<stop offset="1" stop-color="#010A33" stop-opacity="0"/>
</radialGradient>
<radialGradient id="paint24_radial_991_7" cx="0" cy="0" r="1" gradientUnits="userSpaceOnUse" gradientTransform="translate(247.618 311.562) scale(407.1 407.1)">
<stop stop-color="#00F1F2"/>
<stop offset="1" stop-color="#010A33" stop-opacity="0"/>
</radialGradient>
<radialGradient id="paint25_radial_991_7" cx="0" cy="0" r="1" gradientUnits="userSpaceOnUse" gradientTransform="translate(247.618 311.562) scale(407.102 407.102)">
<stop stop-color="#00F1F2"/>
<stop offset="1" stop-color="#010A33" stop-opacity="0"/>
</radialGradient>
<radialGradient id="paint26_radial_991_7" cx="0" cy="0" r="1" gradientUnits="userSpaceOnUse" gradientTransform="translate(247.618 311.562) scale(407.102 407.102)">
<stop stop-color="#00F1F2"/>
<stop offset="1" stop-color="#010A33" stop-opacity="0"/>
</radialGradient>
<radialGradient id="paint27_radial_991_7" cx="0" cy="0" r="1" gradientUnits="userSpaceOnUse" gradientTransform="translate(247.619 311.561) scale(407.102 407.102)">
<stop stop-color="#00F1F2"/>
<stop offset="1" stop-color="#010A33" stop-opacity="0"/>
</radialGradient>
<radialGradient id="paint28_radial_991_7" cx="0" cy="0" r="1" gradientUnits="userSpaceOnUse" gradientTransform="translate(247.618 311.562) scale(407.101 407.101)">
<stop stop-color="#00F1F2"/>
<stop offset="1" stop-color="#010A33" stop-opacity="0"/>
</radialGradient>
<radialGradient id="paint29_radial_991_7" cx="0" cy="0" r="1" gradientUnits="userSpaceOnUse" gradientTransform="translate(247.618 311.561) scale(407.1 407.099)">
<stop stop-color="#00F1F2"/>
<stop offset="1" stop-color="#010A33" stop-opacity="0"/>
</radialGradient>
<radialGradient id="paint30_radial_991_7" cx="0" cy="0" r="1" gradientUnits="userSpaceOnUse" gradientTransform="translate(247.617 311.563) scale(407.098 407.098)">
<stop stop-color="#00F1F2"/>
<stop offset="1" stop-color="#010A33" stop-opacity="0"/>
</radialGradient>
<radialGradient id="paint31_radial_991_7" cx="0" cy="0" r="1" gradientUnits="userSpaceOnUse" gradientTransform="translate(247.618 311.561) scale(407.104 407.103)">
<stop stop-color="#00F1F2"/>
<stop offset="1" stop-color="#010A33" stop-opacity="0"/>
</radialGradient>
<radialGradient id="paint32_radial_991_7" cx="0" cy="0" r="1" gradientUnits="userSpaceOnUse" gradientTransform="translate(247.617 311.564) scale(407.1 407.1)">
<stop stop-color="#00F1F2"/>
<stop offset="1" stop-color="#010A33" stop-opacity="0"/>
</radialGradient>
<radialGradient id="paint33_radial_991_7" cx="0" cy="0" r="1" gradientUnits="userSpaceOnUse" gradientTransform="translate(247.618 311.563) scale(407.102 407.102)">
<stop stop-color="#00F1F2"/>
<stop offset="1" stop-color="#010A33" stop-opacity="0"/>
</radialGradient>
<radialGradient id="paint34_radial_991_7" cx="0" cy="0" r="1" gradientUnits="userSpaceOnUse" gradientTransform="translate(247.618 311.562) scale(407.101 407.1)">
<stop stop-color="#00F1F2"/>
<stop offset="1" stop-color="#010A33" stop-opacity="0"/>
</radialGradient>
<radialGradient id="paint35_radial_991_7" cx="0" cy="0" r="1" gradientUnits="userSpaceOnUse" gradientTransform="translate(247.618 311.561) scale(407.101 407.101)">
<stop stop-color="#00F1F2"/>
<stop offset="1" stop-color="#010A33" stop-opacity="0"/>
</radialGradient>
<radialGradient id="paint36_radial_991_7" cx="0" cy="0" r="1" gradientUnits="userSpaceOnUse" gradientTransform="translate(247.619 311.562) scale(407.101 407.1)">
<stop stop-color="#00F1F2"/>
<stop offset="1" stop-color="#010A33" stop-opacity="0"/>
</radialGradient>
<radialGradient id="paint37_radial_991_7" cx="0" cy="0" r="1" gradientUnits="userSpaceOnUse" gradientTransform="translate(247.618 311.561) scale(407.103 407.102)">
<stop stop-color="#00F1F2"/>
<stop offset="1" stop-color="#010A33" stop-opacity="0"/>
</radialGradient>
<radialGradient id="paint38_radial_991_7" cx="0" cy="0" r="1" gradientUnits="userSpaceOnUse" gradientTransform="translate(247.618 311.565) scale(407.101 407.1)">
<stop stop-color="#00F1F2"/>
<stop offset="1" stop-color="#010A33" stop-opacity="0"/>
</radialGradient>
<radialGradient id="paint39_radial_991_7" cx="0" cy="0" r="1" gradientUnits="userSpaceOnUse" gradientTransform="translate(247.618 311.56) scale(407.103 407.102)">
<stop stop-color="#00F1F2"/>
<stop offset="1" stop-color="#010A33" stop-opacity="0"/>
</radialGradient>
<radialGradient id="paint40_radial_991_7" cx="0" cy="0" r="1" gradientUnits="userSpaceOnUse" gradientTransform="translate(247.618 311.562) scale(407.103 407.103)">
<stop stop-color="#00F1F2"/>
<stop offset="1" stop-color="#010A33" stop-opacity="0"/>
</radialGradient>
<radialGradient id="paint41_radial_991_7" cx="0" cy="0" r="1" gradientUnits="userSpaceOnUse" gradientTransform="translate(247.617 311.562) scale(407.101 407.101)">
<stop stop-color="#00F1F2"/>
<stop offset="1" stop-color="#010A33" stop-opacity="0"/>
</radialGradient>
<radialGradient id="paint42_radial_991_7" cx="0" cy="0" r="1" gradientUnits="userSpaceOnUse" gradientTransform="translate(247.617 311.561) scale(407.103 407.103)">
<stop stop-color="#00F1F2"/>
<stop offset="1" stop-color="#010A33" stop-opacity="0"/>
</radialGradient>
<radialGradient id="paint43_radial_991_7" cx="0" cy="0" r="1" gradientUnits="userSpaceOnUse" gradientTransform="translate(247.619 311.562) scale(407.103 407.103)">
<stop stop-color="#00F1F2"/>
<stop offset="1" stop-color="#010A33" stop-opacity="0"/>
</radialGradient>
<radialGradient id="paint44_radial_991_7" cx="0" cy="0" r="1" gradientUnits="userSpaceOnUse" gradientTransform="translate(247.619 311.562) scale(407.1 407.1)">
<stop stop-color="#00F1F2"/>
<stop offset="1" stop-color="#010A33" stop-opacity="0"/>
</radialGradient>
<radialGradient id="paint45_radial_991_7" cx="0" cy="0" r="1" gradientUnits="userSpaceOnUse" gradientTransform="translate(247.619 311.561) scale(407.101 407.1)">
<stop stop-color="#00F1F2"/>
<stop offset="1" stop-color="#010A33" stop-opacity="0"/>
</radialGradient>
<radialGradient id="paint46_radial_991_7" cx="0" cy="0" r="1" gradientUnits="userSpaceOnUse" gradientTransform="translate(247.618 311.561) scale(407.136 407.135)">
<stop stop-color="#00F1F2"/>
<stop offset="1" stop-color="#010A33" stop-opacity="0"/>
</radialGradient>
<radialGradient id="paint47_radial_991_7" cx="0" cy="0" r="1" gradientUnits="userSpaceOnUse" gradientTransform="translate(247.619 311.561) scale(407.103 407.103)">
<stop stop-color="#00F1F2"/>
<stop offset="1" stop-color="#010A33" stop-opacity="0"/>
</radialGradient>
<radialGradient id="paint48_radial_991_7" cx="0" cy="0" r="1" gradientUnits="userSpaceOnUse" gradientTransform="translate(247.619 311.564) scale(407.1 407.1)">
<stop stop-color="#00F1F2"/>
<stop offset="1" stop-color="#010A33" stop-opacity="0"/>
</radialGradient>
<radialGradient id="paint49_radial_991_7" cx="0" cy="0" r="1" gradientUnits="userSpaceOnUse" gradientTransform="translate(247.618 311.56) scale(407.103 407.103)">
<stop stop-color="#00F1F2"/>
<stop offset="1" stop-color="#010A33" stop-opacity="0"/>
</radialGradient>
<radialGradient id="paint50_radial_991_7" cx="0" cy="0" r="1" gradientUnits="userSpaceOnUse" gradientTransform="translate(247.618 311.563) scale(407.102 407.101)">
<stop stop-color="#00F1F2"/>
<stop offset="1" stop-color="#010A33" stop-opacity="0"/>
</radialGradient>
<radialGradient id="paint51_radial_991_7" cx="0" cy="0" r="1" gradientUnits="userSpaceOnUse" gradientTransform="translate(247.618 311.562) scale(407.1 407.1)">
<stop stop-color="#00F1F2"/>
<stop offset="1" stop-color="#010A33" stop-opacity="0"/>
</radialGradient>
<radialGradient id="paint52_radial_991_7" cx="0" cy="0" r="1" gradientUnits="userSpaceOnUse" gradientTransform="translate(247.619 311.561) scale(407.103 407.103)">
<stop stop-color="#00F1F2"/>
<stop offset="1" stop-color="#010A33" stop-opacity="0"/>
</radialGradient>
<radialGradient id="paint53_radial_991_7" cx="0" cy="0" r="1" gradientUnits="userSpaceOnUse" gradientTransform="translate(247.617 311.561) scale(407.099 407.099)">
<stop stop-color="#00F1F2"/>
<stop offset="1" stop-color="#010A33" stop-opacity="0"/>
</radialGradient>
<radialGradient id="paint54_radial_991_7" cx="0" cy="0" r="1" gradientUnits="userSpaceOnUse" gradientTransform="translate(247.618 311.562) scale(407.102 407.101)">
<stop stop-color="#00F1F2"/>
<stop offset="1" stop-color="#010A33" stop-opacity="0"/>
</radialGradient>
<radialGradient id="paint55_radial_991_7" cx="0" cy="0" r="1" gradientUnits="userSpaceOnUse" gradientTransform="translate(247.618 311.561) scale(407.102 407.102)">
<stop stop-color="#00F1F2"/>
<stop offset="1" stop-color="#010A33" stop-opacity="0"/>
</radialGradient>
<radialGradient id="paint56_radial_991_7" cx="0" cy="0" r="1" gradientUnits="userSpaceOnUse" gradientTransform="translate(247.618 311.562) scale(407.101 407.1)">
<stop stop-color="#00F1F2"/>
<stop offset="1" stop-color="#010A33" stop-opacity="0"/>
</radialGradient>
<radialGradient id="paint57_radial_991_7" cx="0" cy="0" r="1" gradientUnits="userSpaceOnUse" gradientTransform="translate(247.618 311.562) scale(407.103 407.103)">
<stop stop-color="#00F1F2"/>
<stop offset="1" stop-color="#010A33" stop-opacity="0"/>
</radialGradient>
<radialGradient id="paint58_radial_991_7" cx="0" cy="0" r="1" gradientUnits="userSpaceOnUse" gradientTransform="translate(247.619 311.562) scale(407.103 407.103)">
<stop stop-color="#00F1F2"/>
<stop offset="1" stop-color="#010A33" stop-opacity="0"/>
</radialGradient>
<radialGradient id="paint59_radial_991_7" cx="0" cy="0" r="1" gradientUnits="userSpaceOnUse" gradientTransform="translate(247.618 311.565) scale(407.101 407.1)">
<stop stop-color="#00F1F2"/>
<stop offset="1" stop-color="#010A33" stop-opacity="0"/>
</radialGradient>
<radialGradient id="paint60_radial_991_7" cx="0" cy="0" r="1" gradientUnits="userSpaceOnUse" gradientTransform="translate(247.618 311.562) scale(407.101 407.101)">
<stop stop-color="#00F1F2"/>
<stop offset="1" stop-color="#010A33" stop-opacity="0"/>
</radialGradient>
<radialGradient id="paint61_radial_991_7" cx="0" cy="0" r="1" gradientUnits="userSpaceOnUse" gradientTransform="translate(247.618 311.561) scale(407.101 407.101)">
<stop stop-color="#00F1F2"/>
<stop offset="1" stop-color="#010A33" stop-opacity="0"/>
</radialGradient>
<radialGradient id="paint62_radial_991_7" cx="0" cy="0" r="1" gradientUnits="userSpaceOnUse" gradientTransform="translate(247.618 311.563) scale(407.101 407.1)">
<stop stop-color="#00F1F2"/>
<stop offset="1" stop-color="#010A33" stop-opacity="0"/>
</radialGradient>
<radialGradient id="paint63_radial_991_7" cx="0" cy="0" r="1" gradientUnits="userSpaceOnUse" gradientTransform="translate(247.619 311.563) scale(407.1 407.1)">
<stop stop-color="#00F1F2"/>
<stop offset="1" stop-color="#010A33" stop-opacity="0"/>
</radialGradient>
<radialGradient id="paint64_radial_991_7" cx="0" cy="0" r="1" gradientUnits="userSpaceOnUse" gradientTransform="translate(247.618 311.562) scale(407.103 407.102)">
<stop stop-color="#00F1F2"/>
<stop offset="1" stop-color="#010A33" stop-opacity="0"/>
</radialGradient>
<radialGradient id="paint65_radial_991_7" cx="0" cy="0" r="1" gradientUnits="userSpaceOnUse" gradientTransform="translate(247.618 311.562) scale(407.101 407.101)">
<stop stop-color="#00F1F2"/>
<stop offset="1" stop-color="#010A33" stop-opacity="0"/>
</radialGradient>
</defs>
</svg>
