<svg width="72" height="72" viewBox="0 0 72 72" fill="none" xmlns="http://www.w3.org/2000/svg">
<mask id="mask0_1728_33" style="mask-type:alpha" maskUnits="userSpaceOnUse" x="0" y="0" width="72" height="72">
<rect width="72" height="72" fill="#EEEEEE"/>
</mask>
<g mask="url(#mask0_1728_33)">
<path d="M3.69332 16L36 1.64148L68.3067 16L36 30.3585L3.69332 16Z" stroke="#07B0F5" stroke-width="3"/>
<mask id="path-3-inside-1_1728_33" fill="white">
<path fill-rule="evenodd" clip-rule="evenodd" d="M36 34L0 18V56L36 72L72 56V18L58 24.2222V44L53.5 41.5L48 48.5V28.6667L36 34Z"/>
</mask>
<path d="M0 18L1.21842 15.2586L-3 13.3837V18H0ZM36 34L34.7816 36.7414L36 37.283L37.2184 36.7414L36 34ZM0 56H-3V57.9496L-1.21842 58.7414L0 56ZM36 72L34.7816 74.7414L36 75.283L37.2184 74.7414L36 72ZM72 56L73.2184 58.7414L75 57.9496V56H72ZM72 18H75V13.3837L70.7816 15.2586L72 18ZM58 24.2222L56.7816 21.4808L55 22.2726V24.2222H58ZM58 44L56.5431 46.6225L61 49.0985V44H58ZM53.5 41.5L54.9569 38.8775L52.7212 37.6354L51.141 39.6465L53.5 41.5ZM48 48.5H45V57.174L50.359 50.3535L48 48.5ZM48 28.6667H51V24.0504L46.7816 25.9252L48 28.6667ZM-1.21842 20.7414L34.7816 36.7414L37.2184 31.2586L1.21842 15.2586L-1.21842 20.7414ZM3 56V18H-3V56H3ZM37.2184 69.2586L1.21842 53.2586L-1.21842 58.7414L34.7816 74.7414L37.2184 69.2586ZM70.7816 53.2586L34.7816 69.2586L37.2184 74.7414L73.2184 58.7414L70.7816 53.2586ZM69 18V56H75V18H69ZM59.2184 26.9637L73.2184 20.7414L70.7816 15.2586L56.7816 21.4808L59.2184 26.9637ZM55 24.2222V44H61V24.2222H55ZM59.4569 41.3775L54.9569 38.8775L52.0431 44.1225L56.5431 46.6225L59.4569 41.3775ZM51.141 39.6465L45.641 46.6465L50.359 50.3535L55.859 43.3535L51.141 39.6465ZM51 48.5V28.6667H45V48.5H51ZM37.2184 36.7414L49.2184 31.4081L46.7816 25.9252L34.7816 31.2586L37.2184 36.7414Z" fill="#07B0F5" mask="url(#path-3-inside-1_1728_33)"/>
</g>
</svg>
