<svg width="72" height="72" viewBox="0 0 72 72" fill="none" xmlns="http://www.w3.org/2000/svg">
<mask id="mask0_1728_26" style="mask-type:alpha" maskUnits="userSpaceOnUse" x="0" y="0" width="72" height="72">
<rect width="72" height="72" fill="#EEEEEE"/>
</mask>
<g mask="url(#mask0_1728_26)">
<mask id="path-2-inside-1_1728_26" fill="white">
<path fill-rule="evenodd" clip-rule="evenodd" d="M57.2132 8.73506C45.4975 -2.91169 26.5025 -2.91169 14.7868 8.73506C3.07107 20.3818 3.07107 39.2649 14.7868 50.9117L36 72L57.2132 50.9117C68.9289 39.2649 68.9289 20.3818 57.2132 8.73506ZM36 42C42.6274 42 48 36.6274 48 30C48 23.3726 42.6274 18 36 18C29.3726 18 24 23.3726 24 30C24 36.6274 29.3726 42 36 42Z"/>
</mask>
<path d="M14.7868 8.73506L12.6717 6.60749L14.7868 8.73506ZM57.2132 8.73506L59.3283 6.60749L57.2132 8.73506ZM14.7868 50.9117L16.9018 48.7841L14.7868 50.9117ZM36 72L33.885 74.1276L36 76.2302L38.1151 74.1276L36 72ZM57.2132 50.9117L55.0982 48.7841L57.2132 50.9117ZM16.9018 10.8626C27.4475 0.37912 44.5526 0.37912 55.0982 10.8626L59.3283 6.60749C46.4424 -6.2025 25.5576 -6.2025 12.6717 6.60749L16.9018 10.8626ZM16.9018 48.7841C6.36605 38.3103 6.36605 21.3364 16.9018 10.8626L12.6717 6.60749C-0.223917 19.4272 -0.223917 40.2195 12.6717 53.0393L16.9018 48.7841ZM38.1151 69.8724L16.9018 48.7841L12.6717 53.0393L33.885 74.1276L38.1151 69.8724ZM55.0982 48.7841L33.885 69.8724L38.1151 74.1276L59.3283 53.0393L55.0982 48.7841ZM55.0982 10.8626C65.6339 21.3364 65.6339 38.3103 55.0982 48.7841L59.3283 53.0393C72.2239 40.2195 72.2239 19.4272 59.3283 6.60749L55.0982 10.8626ZM45 30C45 34.9706 40.9706 39 36 39V45C44.2843 45 51 38.2843 51 30H45ZM36 21C40.9706 21 45 25.0294 45 30H51C51 21.7157 44.2843 15 36 15V21ZM27 30C27 25.0294 31.0294 21 36 21V15C27.7157 15 21 21.7157 21 30H27ZM36 39C31.0294 39 27 34.9706 27 30H21C21 38.2843 27.7157 45 36 45V39Z" fill="#07B0F5" mask="url(#path-2-inside-1_1728_26)"/>
</g>
</svg>
