<svg width="105" height="30" viewBox="0 0 105 30" fill="none" xmlns="http://www.w3.org/2000/svg">
<path d="M30.4802 0.0598806C26.7758 4.18263 20.7843 9.49633 20.7843 15C20.7843 20.5037 26.7758 25.8174 30.4802 29.9401L30.4193 30C26.2309 26.3535 20.832 20.456 15.2401 20.456C9.64816 20.456 4.24931 26.3535 0.0608376 30L0 29.9401C3.7049 25.8176 9.69676 20.5038 9.69676 15C9.69676 9.49617 3.7049 4.18237 0 0.0598792L0.0608376 0C4.24958 3.646 9.64833 9.54312 15.2401 9.54312C20.8318 9.54312 26.2306 3.646 30.4193 1.38439e-06L30.4802 0.0598806Z" fill="url(#paint0_radial_24061_75341)"/>
<path d="M18.2881 15C18.2881 16.6569 16.9235 18 15.2401 18C13.5567 18 12.1921 16.6569 12.1921 15C12.1921 13.3431 13.5567 12 15.2401 12C16.9235 12 18.2881 13.3431 18.2881 15Z" fill="white"/>
<path d="M93.0314 16.72C93.0314 15.5733 93.2482 14.5667 93.6817 13.7C94.1287 12.8333 94.7316 12.1667 95.4902 11.7C96.2488 11.2333 97.0955 11 98.0302 11C98.8295 11 99.5271 11.16 100.123 11.48C100.733 11.8 101.2 12.22 101.525 12.74V11.16H105V22.32H101.525V20.74C101.187 21.26 100.712 21.68 100.103 22C99.5068 22.32 98.8091 22.48 98.0099 22.48C97.0887 22.48 96.2488 22.2467 95.4902 21.78C94.7316 21.3 94.1287 20.6267 93.6817 19.76C93.2482 18.88 93.0314 17.8667 93.0314 16.72ZM101.525 16.74C101.525 15.8867 101.281 15.2133 100.794 14.72C100.32 14.2267 99.7371 13.98 99.0462 13.98C98.3553 13.98 97.766 14.2267 97.2783 14.72C96.8042 15.2 96.5672 15.8667 96.5672 16.72C96.5672 17.5733 96.8042 18.2533 97.2783 18.76C97.766 19.2533 98.3553 19.5 99.0462 19.5C99.7371 19.5 100.32 19.2533 100.794 18.76C101.281 18.2667 101.525 17.5933 101.525 16.74Z" fill="white"/>
<path d="M88.482 22.32L86.3077 19.22L84.4789 22.32H80.7197L84.4586 16.62L80.6181 11.16H84.5196L86.6938 14.24L88.5226 11.16H92.2818L88.482 16.78L92.3834 22.32H88.482Z" fill="white"/>
<path d="M79.2805 11.16V22.32H75.8057V20.8C75.4535 21.2933 74.9726 21.6933 74.363 22C73.7669 22.2933 73.1031 22.44 72.3716 22.44C71.5046 22.44 70.7392 22.2533 70.0754 21.88C69.4116 21.4933 68.8969 20.94 68.5311 20.22C68.1653 19.5 67.9825 18.6533 67.9825 17.68V11.16H71.4369V17.22C71.4369 17.9667 71.6333 18.5467 72.0262 18.96C72.419 19.3733 72.9474 19.58 73.6111 19.58C74.2885 19.58 74.8236 19.3733 75.2164 18.96C75.6093 18.5467 75.8057 17.9667 75.8057 17.22V11.16H79.2805Z" fill="white"/>
<path d="M65.566 7.52001V22.32H62.0912V7.52001H65.566Z" fill="white"/>
<path d="M59.5731 7.52001V22.32H56.0984V7.52001H59.5731Z" fill="white"/>
<path d="M48.3215 22.48C47.2106 22.48 46.2082 22.2467 45.3141 21.78C44.4336 21.3133 43.7359 20.6467 43.2211 19.78C42.7199 18.9133 42.4693 17.9 42.4693 16.74C42.4693 15.5933 42.7267 14.5867 43.2414 13.72C43.7562 12.84 44.4607 12.1667 45.3547 11.7C46.2488 11.2333 47.2513 11 48.3621 11C49.473 11 50.4754 11.2333 51.3695 11.7C52.2636 12.1667 52.968 12.84 53.4828 13.72C53.9976 14.5867 54.255 15.5933 54.255 16.74C54.255 17.8867 53.9908 18.9 53.4625 19.78C52.9477 20.6467 52.2365 21.3133 51.3289 21.78C50.4348 22.2467 49.4323 22.48 48.3215 22.48ZM48.3215 19.52C48.9853 19.52 49.5475 19.28 50.008 18.8C50.4822 18.32 50.7193 17.6333 50.7193 16.74C50.7193 15.8467 50.489 15.16 50.0284 14.68C49.5813 14.2 49.0259 13.96 48.3621 13.96C47.6848 13.96 47.1226 14.2 46.6755 14.68C46.2285 15.1467 46.005 15.8333 46.005 16.74C46.005 17.6333 46.2217 18.32 46.6552 18.8C47.1023 19.28 47.6577 19.52 48.3215 19.52Z" fill="white"/>
<path d="M41.3512 12.8C41.3512 13.6133 41.1615 14.36 40.7822 15.04C40.4029 15.7067 39.8204 16.2467 39.0347 16.66C38.249 17.0733 37.2736 17.28 36.1086 17.28H33.9547V22.32H30.4799V8.28H36.1086C37.2465 8.28 38.2084 8.47334 38.9941 8.86C39.7798 9.24667 40.3691 9.78001 40.7619 10.46C41.1548 11.14 41.3512 11.92 41.3512 12.8ZM35.8444 14.56C36.5082 14.56 37.0027 14.4067 37.3278 14.1C37.6529 13.7933 37.8155 13.36 37.8155 12.8C37.8155 12.24 37.6529 11.8067 37.3278 11.5C37.0027 11.1933 36.5082 11.04 35.8444 11.04H33.9547V14.56H35.8444Z" fill="white"/>
<defs>
<radialGradient id="paint0_radial_24061_75341" cx="0" cy="0" r="1" gradientTransform="matrix(25.4532 -7.375 25.892 7.25 53.5394 14.625)" gradientUnits="userSpaceOnUse">
<stop offset="0.144231" stop-color="#CEEFFD"/>
<stop offset="0.576923" stop-color="#38BDF8"/>
</radialGradient>
</defs>
</svg>
